999
FreeCAD v0.20 29177 (Git)
  0
SECTION
  2
HEADER
  9
$ACADVER
  1
AC1014
  9
$ACADMAINTVER
 70
     9
  9
$DWGCODEPAGE
  3
ANSI_1252
  9
$TEXTSTYLE
  7
STANDARD
  9
$DIMSTYLE
  2
STANDARD
  9
$DIMTXSTY
  7
STANDARD
  9
$CMLSTYLE
  2
STANDARD
  9
$LUNITS
 70
2
  9
$INSUNITS
 70
4
  9
$PEXTMAX
 10
50
 20
50
 30
50
  9
$PEXTMIN
 10
0
 20
0
 30
0
  9
$HANDSEED
  5
FFFF
  0
ENDSEC
  0
SECTION
  2
CLASSES
  0
CLASS
  1
ACDBDICTIONARYWDFLT
  2
AcDbDictionaryWithDefault
  3
ObjectDBX Classes
 90
        0
280
     0
281
     0
  0
CLASS
  1
XRECORD
  2
AcDbXrecord
  3
ObjectDBX Classes
 90
        0
280
     0
281
     0
  0
CLASS
  1
LWPOLYLINE
  2
AcDbPolyline
  3
ObjectDBX Classes
 90
        0
280
     0
281
     1
  0
ENDSEC
  0
SECTION
  2
TABLES
  0
TABLE
  2
VPORT
  5
20
330
0
100
AcDbSymbolTable
 70
     1
  0
VPORT
  5
21
330
20
100
AcDbSymbolTableRecord
100
AcDbViewportTableRecord
  2
*ACTIVE
 70
     0
  0
ENDTAB
  0
TABLE
  2
LTYPE
  5
22
330
0
100
AcDbSymbolTable
 70
     1
  0
LTYPE
  5
23
330
21
100
AcDbSymbolTableRecord
100
AcDbLinetypeTableRecord
  2
BYBLOCK
 70
     0
  3

 72
    65
 73
     0
 40
0.0
  0
LTYPE
  5
24
330
21
100
AcDbSymbolTableRecord
100
AcDbLinetypeTableRecord
  2
BYLAYER
 70
     0
  3

 72
    65
 73
     0
 40
0.0
  0
LTYPE
  5
25
330
21
100
AcDbSymbolTableRecord
100
AcDbLinetypeTableRecord
  2
CONTINUOUS
 70
     0
  3
Solid line
 72
    65
 73
     0
 40
0.0
  0
ENDTAB
  0
TABLE
  2
LAYER
  5
A3D
330
0
100
AcDbSymbolTable
 70
3
  0
LAYER
  5
A3E
330
A3D
100
AcDbSymbolTableRecord
100
AcDbLayerTableRecord
  2
0
 70
   0
 62
   7
  6
CONTINUOUS
  0
LAYER
  5
A3F
330
A3D
100
AcDbSymbolTableRecord
100
AcDbLayerTableRecord
  2
none
 70
    0
 62
    7
  6
CONTINUOUS
  0
LAYER
  5
A40
330
A3D
100
AcDbSymbolTableRecord
100
AcDbLayerTableRecord
  2
Shape2DView011
 70
    0
 62
    7
  6
CONTINUOUS
  0
ENDTAB
  0
TABLE
  2
STYLE
  5
70
330
0
100
AcDbSymbolTable
 70
     2
  0
STYLE
  5
71
330
70
100
AcDbSymbolTableRecord
100
AcDbTextStyleTableRecord
  2
STANDARD
 70
     0
 40
0.0
 41
1.0
 50
0.0
 71
     0
 42
2.5
  3
arial.ttf
  4

  0
STYLE
  5
72
330
70
100
AcDbSymbolTableRecord
100
AcDbTextStyleTableRecord
  2
ANNOTATIVE
 70
     0
 40
0.0
 41
1.0
 50
0.0
 71
     0
 42
2.5
  3
arial.ttf
  4

  0
ENDTAB
  0
TABLE
  2
VIEW
  5
73
330
0
100
AcDbSymbolTable
 70
     0
  0
ENDTAB
  0
TABLE
  2
UCS
  5
74
330
0
100
AcDbSymbolTable
 70
     0
  0
ENDTAB
  0
TABLE
  2
APPID
  5
75
330
0
100
AcDbSymbolTable
 70
     2
  0
APPID
  5
76
330
75
100
AcDbSymbolTableRecord
100
AcDbRegAppTableRecord
  2
ACAD
 70
     0
  0
APPID
  5
77
330
75
100
AcDbSymbolTableRecord
100
AcDbRegAppTableRecord
  2
ACADANNOTATIVE
 70
     0
  0
ENDTAB
  0
TABLE
  2
DIMSTYLE
  5
78
330
0
100
AcDbSymbolTable
 70
     2
  0
DIMSTYLE
105
79
330
78
100
AcDbSymbolTableRecord
100
AcDbDimStyleTableRecord
  2
STANDARD
 70
     0
  3

  4

  5

  6

  7

 40
0.0
 41
2.5
 42
0.625
 43
3.75
 44
1.25
 45
0.0
 46
0.0
 47
0.0
 48
0.0
140
2.5
141
2.5
142
0.0
143
0.03937007874016
144
1.0
145
0.0
146
1.0
147
0.625
 71
     0
 72
     0
 73
     0
 74
     0
 75
     0
 76
     0
 77
     1
 78
     8
170
     0
171
     3
172
     1
173
     0
174
     0
175
     0
176
     0
177
     0
178
     0
270
     2
271
     2
272
     2
273
     2
274
     3
340
71
275
     0
280
     0
281
     0
282
     0
283
     0
284
     8
285
     0
286
     0
287
     3
288
     0
  0
ENDTAB
  0
TABLE
  2
BLOCK_RECORD
  5
A01
330
0
100
AcDbSymbolTable
  70
5
  0
BLOCK_RECORD
  5
A02
330
A01
100
AcDbSymbolTableRecord
100
AcDbBlockTableRecord
  2
*MODEL_SPACE
  0
BLOCK_RECORD
  5
A03
330
A01
100
AcDbSymbolTableRecord
100
AcDbBlockTableRecord
  2
*PAPER_SPACE
  0
ENDTAB
  0
ENDSEC
  0
SECTION
  2
BLOCKS
  0
BLOCK
  5
A04
330
A02
100
AcDbEntity
  8
0
100
AcDbBlockBegin
  2
*MODEL_SPACE
 70
   0
 10
0
 20
0
 30
0
  3
*MODEL_SPACE
  1
 
  0
ENDBLK
  5
A05
330
A02
100
AcDbEntity
  8
0
100
AcDbBlockEnd
  0
BLOCK
  5
A06
330
A03
100
AcDbEntity
 67
1
  8
0
100
AcDbBlockBegin
  2
*PAPER_SPACE
 70
   0
 10
0
 20
0
 30
0
  3
*PAPER_SPACE
  1
 
  0
ENDBLK
  5
A07
330
A03
100
AcDbEntity
 67
    1
  8
0
100
AcDbBlockEnd
  0
ENDSEC
  0
SECTION
  2
ENTITIES
  0
LINE
  5
A08
330
A02
100
AcDbEntity
  8
Shape2DView011
100
AcDbLine
 10
-85
 20
166
 30
0
 11
125
 21
166
 31
0
  0
LINE
  5
A09
330
A02
100
AcDbEntity
  8
Shape2DView011
100
AcDbLine
 10
-85
 20
-185
 30
0
 11
-85
 21
166
 31
0
  0
LINE
  5
A0A
330
A02
100
AcDbEntity
  8
Shape2DView011
100
AcDbLine
 10
125
 20
166
 30
0
 11
125
 21
-185
 31
0
  0
LINE
  5
A0B
330
A02
100
AcDbEntity
  8
Shape2DView011
100
AcDbLine
 10
125
 20
-185
 30
0
 11
-85
 21
-185
 31
0
  0
ELLIPSE
  5
A0C
330
A02
100
AcDbEntity
  8
Shape2DView011
100
AcDbEllipse
 10
-70
 20
161
 30
0
 11
-5.71476e-09
 21
-1.5
 31
0
 40
1
 41
0
 42
6.28318
  0
ELLIPSE
  5
A0D
330
A02
100
AcDbEntity
  8
Shape2DView011
100
AcDbEllipse
 10
-60
 20
161
 30
0
 11
-5.71476e-09
 21
-1.5
 31
0
 40
1
 41
0
 42
6.28318
  0
LINE
  5
A0E
330
A02
100
AcDbEntity
  8
Shape2DView011
100
AcDbLine
 10
-56.0526
 20
147.5
 30
0
 11
-46.0526
 21
147.5
 31
0
  0
ELLIPSE
  5
A0F
330
A02
100
AcDbEntity
  8
Shape2DView011
100
AcDbEllipse
 10
-46.0526
 20
149.25
 30
0
 11
6.66722e-09
 21
1.75
 31
0
 40
1
 41
-3.14159
 42
3.80984e-09
  0
LINE
  5
A10
330
A02
100
AcDbEntity
  8
Shape2DView011
100
AcDbLine
 10
-46.0526
 20
151
 30
0
 11
-56.0526
 21
151
 31
0
  0
ELLIPSE
  5
A11
330
A02
100
AcDbEntity
  8
Shape2DView011
100
AcDbEllipse
 10
-56.0526
 20
149.25
 30
0
 11
6.66722e-09
 21
1.75
 31
0
 40
1
 41
-6.28319
 42
-3.14159
  0
ELLIPSE
  5
A12
330
A02
100
AcDbEntity
  8
Shape2DView011
100
AcDbEllipse
 10
-74.84
 20
-6.35
 30
0
 11
-5.71476e-09
 21
-1.5
 31
0
 40
1
 41
0
 42
6.28318
  0
ELLIPSE
  5
A13
330
A02
100
AcDbEntity
  8
Shape2DView011
100
AcDbEllipse
 10
10
 20
161
 30
0
 11
-5.71476e-09
 21
-1.5
 31
0
 40
1
 41
0
 42
6.28318
  0
ELLIPSE
  5
A14
330
A02
100
AcDbEntity
  8
Shape2DView011
100
AcDbEllipse
 10
20
 20
161
 30
0
 11
-5.71476e-09
 21
-1.5
 31
0
 40
1
 41
0
 42
6.28318
  0
LINE
  5
A15
330
A02
100
AcDbEntity
  8
Shape2DView011
100
AcDbLine
 10
-17.1082
 20
70.8
 30
0
 11
-27.1082
 21
70.8
 31
0
  0
ELLIPSE
  5
A16
330
A02
100
AcDbEntity
  8
Shape2DView011
100
AcDbEllipse
 10
-27.1082
 20
68.8
 30
0
 11
7.61968e-09
 21
2
 31
0
 40
1
 41
-6.28319
 42
-3.14159
  0
LINE
  5
A17
330
A02
100
AcDbEntity
  8
Shape2DView011
100
AcDbLine
 10
-27.1082
 20
66.8
 30
0
 11
-17.1082
 21
66.8
 31
0
  0
ELLIPSE
  5
A18
330
A02
100
AcDbEntity
  8
Shape2DView011
100
AcDbEllipse
 10
-17.1082
 20
68.8
 30
0
 11
7.61968e-09
 21
2
 31
0
 40
1
 41
-3.14159
 42
3.80917e-09
  0
LINE
  5
A19
330
A02
100
AcDbEntity
  8
Shape2DView011
100
AcDbLine
 10
-17.1082
 20
46.8
 30
0
 11
-27.1082
 21
46.8
 31
0
  0
ELLIPSE
  5
A1A
330
A02
100
AcDbEntity
  8
Shape2DView011
100
AcDbEllipse
 10
-27.1082
 20
44.8
 30
0
 11
7.61968e-09
 21
2
 31
0
 40
1
 41
-6.28319
 42
-3.14159
  0
LINE
  5
A1B
330
A02
100
AcDbEntity
  8
Shape2DView011
100
AcDbLine
 10
-27.1082
 20
42.8
 30
0
 11
-17.1082
 21
42.8
 31
0
  0
ELLIPSE
  5
A1C
330
A02
100
AcDbEntity
  8
Shape2DView011
100
AcDbEllipse
 10
-17.1082
 20
44.8
 30
0
 11
7.61968e-09
 21
2
 31
0
 40
1
 41
-3.14159
 42
3.80984e-09
  0
ELLIPSE
  5
A1D
330
A02
100
AcDbEntity
  8
Shape2DView011
100
AcDbEllipse
 10
-70
 20
-180
 30
0
 11
-5.71476e-09
 21
-1.5
 31
0
 40
1
 41
0
 42
6.28318
  0
ELLIPSE
  5
A1E
330
A02
100
AcDbEntity
  8
Shape2DView011
100
AcDbEllipse
 10
-60
 20
-180
 30
0
 11
-5.71476e-09
 21
-1.5
 31
0
 40
1
 41
0
 42
6.28318
  0
ELLIPSE
  5
A1F
330
A02
100
AcDbEntity
  8
Shape2DView011
100
AcDbEllipse
 10
-51.98
 20
-163.65
 30
0
 11
-5.71476e-09
 21
-1.5
 31
0
 40
1
 41
0
 42
6.28318
  0
LINE
  5
A20
330
A02
100
AcDbEntity
  8
Shape2DView011
100
AcDbLine
 10
-61
 20
-14.5
 30
0
 11
27
 21
-14.5
 31
0
  0
LINE
  5
A21
330
A02
100
AcDbEntity
  8
Shape2DView011
100
AcDbLine
 10
-61
 20
-40.5
 30
0
 11
-61
 21
-14.5
 31
0
  0
LINE
  5
A22
330
A02
100
AcDbEntity
  8
Shape2DView011
100
AcDbLine
 10
27
 20
-14.5
 30
0
 11
27
 21
-40.5
 31
0
  0
LINE
  5
A23
330
A02
100
AcDbEntity
  8
Shape2DView011
100
AcDbLine
 10
27
 20
-40.5
 30
0
 11
-61
 21
-40.5
 31
0
  0
LINE
  5
A24
330
A02
100
AcDbEntity
  8
Shape2DView011
100
AcDbLine
 10
-33.5
 20
-44.8
 30
0
 11
38.3
 21
-44.8
 31
0
  0
LINE
  5
A25
330
A02
100
AcDbEntity
  8
Shape2DView011
100
AcDbLine
 10
-33.5
 20
-152.8
 30
0
 11
-33.5
 21
-44.8
 31
0
  0
LINE
  5
A26
330
A02
100
AcDbEntity
  8
Shape2DView011
100
AcDbLine
 10
38.3
 20
-44.8
 30
0
 11
38.3
 21
-152.8
 31
0
  0
LINE
  5
A27
330
A02
100
AcDbEntity
  8
Shape2DView011
100
AcDbLine
 10
38.3
 20
-152.8
 30
0
 11
-33.5
 21
-152.8
 31
0
  0
ELLIPSE
  5
A28
330
A02
100
AcDbEntity
  8
Shape2DView011
100
AcDbEllipse
 10
20
 20
-180
 30
0
 11
-5.71476e-09
 21
-1.5
 31
0
 40
1
 41
0
 42
6.28318
  0
LINE
  5
A29
330
A02
100
AcDbEntity
  8
Shape2DView011
100
AcDbLine
 10
42.5736
 20
14.1421
 30
0
 11
35.5025
 21
21.2132
 31
0
  0
ELLIPSE
  5
A2A
330
A02
100
AcDbEntity
  8
Shape2DView011
100
AcDbEllipse
 10
34.0883
 20
19.799
 30
0
 11
7.61968e-09
 21
2
 31
0
 40
1
 41
-0.785398
 42
-3.92699
  0
LINE
  5
A2B
330
A02
100
AcDbEntity
  8
Shape2DView011
100
AcDbLine
 10
32.6741
 20
18.3848
 30
0
 11
39.7452
 21
11.3137
 31
0
  0
ELLIPSE
  5
A2C
330
A02
100
AcDbEntity
  8
Shape2DView011
100
AcDbEllipse
 10
41.1594
 20
12.7279
 30
0
 11
7.61968e-09
 21
2
 31
0
 40
1
 41
-3.92699
 42
-0.785398
  0
LINE
  5
A2D
330
A02
100
AcDbEntity
  8
Shape2DView011
100
AcDbLine
 10
59.5442
 20
31.1127
 30
0
 11
52.4731
 21
38.1838
 31
0
  0
ELLIPSE
  5
A2E
330
A02
100
AcDbEntity
  8
Shape2DView011
100
AcDbEllipse
 10
51.0589
 20
36.7696
 30
0
 11
7.61968e-09
 21
2
 31
0
 40
1
 41
-0.785398
 42
-3.92699
  0
LINE
  5
A2F
330
A02
100
AcDbEntity
  8
Shape2DView011
100
AcDbLine
 10
49.6447
 20
35.3553
 30
0
 11
56.7157
 21
28.2843
 31
0
  0
ELLIPSE
  5
A30
330
A02
100
AcDbEntity
  8
Shape2DView011
100
AcDbEllipse
 10
58.1299
 20
29.6985
 30
0
 11
7.61968e-09
 21
2
 31
0
 40
1
 41
-3.92699
 42
-0.785398
  0
LINE
  5
A31
330
A02
100
AcDbEntity
  8
Shape2DView011
100
AcDbLine
 10
69.6474
 20
147.5
 30
0
 11
79.6474
 21
147.5
 31
0
  0
ELLIPSE
  5
A32
330
A02
100
AcDbEntity
  8
Shape2DView011
100
AcDbEllipse
 10
79.6474
 20
149.25
 30
0
 11
6.66722e-09
 21
1.75
 31
0
 40
1
 41
-3.14159
 42
3.80984e-09
  0
LINE
  5
A33
330
A02
100
AcDbEntity
  8
Shape2DView011
100
AcDbLine
 10
79.6474
 20
151
 30
0
 11
69.6474
 21
151
 31
0
  0
ELLIPSE
  5
A34
330
A02
100
AcDbEntity
  8
Shape2DView011
100
AcDbEllipse
 10
69.6474
 20
149.25
 30
0
 11
6.66722e-09
 21
1.75
 31
0
 40
1
 41
-6.28319
 42
-3.14159
  0
ELLIPSE
  5
A35
330
A02
100
AcDbEntity
  8
Shape2DView011
100
AcDbEllipse
 10
100
 20
161
 30
0
 11
-5.71476e-09
 21
-1.5
 31
0
 40
1
 41
0
 42
6.28318
  0
ELLIPSE
  5
A36
330
A02
100
AcDbEntity
  8
Shape2DView011
100
AcDbEllipse
 10
110
 20
161
 30
0
 11
-5.71476e-09
 21
-1.5
 31
0
 40
1
 41
0
 42
6.28318
  0
ELLIPSE
  5
A37
330
A02
100
AcDbEntity
  8
Shape2DView011
100
AcDbEllipse
 10
80.101
 20
-6.35
 30
0
 11
-5.71476e-09
 21
-1.5
 31
0
 40
1
 41
0
 42
6.28318
  0
ELLIPSE
  5
A38
330
A02
100
AcDbEntity
  8
Shape2DView011
100
AcDbEllipse
 10
30
 20
-180
 30
0
 11
-5.71476e-09
 21
-1.5
 31
0
 40
1
 41
0
 42
6.28318
  0
ELLIPSE
  5
A39
330
A02
100
AcDbEntity
  8
Shape2DView011
100
AcDbEllipse
 10
115
 20
-15
 30
0
 11
6.66722e-09
 21
1.75
 31
0
 40
1
 41
0
 42
6.28318
  0
ELLIPSE
  5
A3A
330
A02
100
AcDbEntity
  8
Shape2DView011
100
AcDbEllipse
 10
80.101
 20
-163.65
 30
0
 11
-5.71476e-09
 21
-1.5
 31
0
 40
1
 41
0
 42
6.28318
  0
ELLIPSE
  5
A3B
330
A02
100
AcDbEntity
  8
Shape2DView011
100
AcDbEllipse
 10
100
 20
-180
 30
0
 11
-5.71476e-09
 21
-1.5
 31
0
 40
1
 41
0
 42
6.28318
  0
ELLIPSE
  5
A3C
330
A02
100
AcDbEntity
  8
Shape2DView011
100
AcDbEllipse
 10
110
 20
-180
 30
0
 11
-5.71476e-09
 21
-1.5
 31
0
 40
1
 41
0
 42
6.28318
  0
ENDSEC
  0
SECTION
  2
OBJECTS
  0
DICTIONARY
  5
F000
330
0
100
AcDbDictionary
  3
ACAD_GROUP
350
F001
  0
DICTIONARY
  5
F001
330
F000
100
AcDbDictionary
  0
ENDSEC
  0
EOF